<svg viewBox="0 0 130 130" version="1.1" xmlns="http://www.w3.org/2000/svg" data-name="Layer 1" id="Layer_1">
  <defs>
    <style>
      .cls-1 {
        fill: #a8915f;
        stroke-width: 0px;
      }
    </style>
  </defs>
  <path d="M45.18,127.5c-9.79,0-19.58,0-29.37,0h-5.76c-5,0-8.46-2.96-9.03-7.72-.26-2.12.45-4.37,1.93-6.15,1.45-1.74,3.46-2.82,5.52-2.95.73-.05,1.51-.07,2.47-.07.69,0,1.39.01,2.11.02.76.01,1.55.02,2.37.02h1.71l-.7-1.56c-3.97-8.89-4.31-17.48-1.03-26.27l.31-.84-.75-.48c-.42-.27-.84-.52-1.25-.77-.88-.53-1.71-1.03-2.44-1.63-5.11-4.17-7.21-9.32-6.24-15.3.48-2.96,1.7-5.89,3.97-9.5,6.03-9.61,14.87-15.41,26.27-17.25,1.08-.17,2.23-.6,2.62-2.42,2.03-9.45,5.43-17.49,10.39-24.57,2.17-3.09,4.3-5.16,6.7-6.53,1.18-.67,2.35-1.01,3.49-1.01,2.32,0,4.2,1.47,5.14,4.03.4,1.1.6,2.3.81,3.56.08.48.16.97.25,1.45.05.27.06.59.07.92,0,.19,0,.37.02.56l.09,1.53,1.43-.56c.69-.27,1.37-.56,2.03-.84,1.51-.64,2.94-1.24,4.42-1.65,1.18-.33,2.38-.51,3.47-.51.38,0,.74.02,1.09.06,3.09.37,4.84,2.45,4.82,5.7-.02,2.5-.76,5.03-2.4,8.2-3.32,6.39-8.11,12.29-14.64,18.04-1.09.95-2.27,1.86-3.42,2.73-.83.63-1.7,1.29-2.53,1.97-.61.5-1.17,1.49-1.02,2.36.52,2.94.13,5.87-1.18,8.93-.14.33-.24.66-.35,1.01-.05.16-.11.34-.17.53l-.48,1.46h3.8c2.67,0,5.33,0,8-.02,2.66,0,5.33-.02,7.99-.02,4.46,0,8.1.03,11.46.09,7.57.14,14.87,2.9,20.56,7.76,5.68,4.86,9.56,11.64,10.92,19.09.28,1.53,1.01,2.32,2.53,2.74,4.05,1.13,6.62,3.86,7.64,8.13.05.23.12.44.18.64.01.03.02.07.03.1v2.5c-.49,1.93-1.09,3.94-2.52,5.55-2.24,2.53-4.83,3.75-7.91,3.75-.72,0-1.48-.07-2.25-.21-.26-.05-.5-.07-.72-.07-1.19,0-1.83.69-2.25,1.29-5.05,7.19-11.88,11.71-20.29,13.43-2.23.46-4.58.69-6.97.7-12.05.02-25.07.03-40.95.03ZM61.65,113.72c-1.87,0-3.38,0-4.76.03-1.55.02-2.94.62-3.92,1.69-.98,1.07-1.45,2.52-1.33,4.08.22,2.88,2.51,4.82,5.7,4.82h2.42c4.05.01,8.1.02,12.15.02,5.54,0,10.13-.01,14.44-.04,2.42-.01,4.34-.21,6.06-.61,10.87-2.56,18.2-8.98,21.78-19.07,2.33-6.55,2.46-12.96.41-19.05-4.24-12.55-15.14-20.38-28.44-20.44-1.83,0-3.67-.01-5.5-.01-1.49,0-2.98,0-4.48,0-1.49,0-2.98,0-4.47,0h-10.47c-2.59,0-5.19,0-7.78,0-.84,0-1.47-.26-1.77-.73-.3-.47-.27-1.15.09-1.92.18-.4.39-.78.61-1.2.12-.23.24-.46.36-.69,1.85-3.64,3.34-7.64,1.64-12.22-.11-.29-.43-1.16.83-1.91.82-.48,1.6-1.05,2.29-1.55,8.69-6.25,15.02-13.25,19.37-21.39.99-1.86,2.01-4.12,2.03-6.78,0-.86-.23-1.53-.7-2.01-.29-.3-.82-.65-1.66-.65-.13,0-.27,0-.41.03-1.18.15-2.55.34-3.82.81-5.34,1.94-9.63,5.32-13.13,8.36-5.54,4.81-9.85,9.89-13.18,15.52-.43.73-.98,1.02-1.95,1.02-.05,0-.1,0-.15,0h-.47c-.87-.04-1.78-.07-2.68-.07-1.3,0-2.37.06-3.37.19-13.66,1.74-23.25,9.04-28.48,21.72-1.31,3.17-1.2,6.71.3,9.96,1.55,3.34,4.34,5.86,7.66,6.93,1.47.47,2.34.99,2.59,1.53.3.66-.15,1.86-.67,3.05-3,6.87-3.29,13.94-.84,21.01.65,1.87,1.58,3.63,2.49,5.32.24.44.47.88.7,1.33.95,1.82.15,2.32-.12,2.49-.38.23-.99.39-1.59.4-.92.02-1.91.02-3.2.02-.56,0-2.78,0-3.34,0-.96,0-2.22,0-3.51.03-1.83.04-3.49.96-4.44,2.47-.93,1.48-1.05,3.33-.31,4.95.96,2.11,2.8,3.19,5.45,3.19,6.58,0,13.15,0,19.73,0h17.31c.25,0,.5-.01.76-.03.12,0,.25-.01.39-.02l1.4-.06-.38-1.35c-.04-.13-.07-.26-.1-.38-.07-.27-.14-.53-.23-.8-1.33-3.91.29-8.06,3.94-10.1,1.56-.87,3.24-1.04,5.45-1.04.18,0,.36,0,.54,0,.96,0,1.93.01,2.9.01.74,0,1.49,0,2.25,0,.78,0,1.57,0,2.37,0h1.11v-1.67c0-.33,0-.63,0-.92.11-7.08,3.07-12.3,9.04-15.93,2.72-1.65,5.87-2.39,10.22-2.39.56,0,1.15.01,1.8.04.87.03,1.91.32,1.96,1.53.04.92-.74,1.58-1.93,1.63-.48.02-.96.02-1.33.02h-1.23c-.37,0-.74,0-1.12.01-6.51.19-12.11,4.6-13.62,10.73-.49,1.97-.53,4.03-.56,6.02,0,.47-.02.93-.03,1.4-.07,2.33-.46,2.71-2.73,2.71h-.54c-.96,0-1.93,0-2.89,0-.96,0-1.93,0-2.89,0ZM116.73,108.85l1.13.21c.33.06.68.09,1.02.09,3.04,0,5.86-2.28,6.71-5.42,1.01-3.72-.99-7.59-4.54-8.82l-1.18-.41-3.14,14.35ZM58.41,5.63c-.53,0-1.08.19-1.73.59-1.4.87-2.41,1.68-3.2,2.54-7.12,7.84-10.32,17.61-12.52,26.14l-.17.65,1.69,1.53.74-.7c.11-.1.23-.2.34-.3.33-.28.71-.59,1-1.03,3.48-5.31,7.89-10.25,13.12-14.66l.29-.24c3.6-3.03,3.79-3.5,3.5-8.39-.08-1.3-.36-2.68-.85-4.11-.45-1.33-1.2-2.01-2.23-2.01Z" class="cls-1"></path>
  <path d="M108.22,96.26c-.56,0-1.27-.21-1.45-1.21-.12-.68-.2-1.36-.28-2.08-.12-1.02-.24-2.07-.49-3.11-2.1-8.62-9.8-14.9-18.73-15.28-.42-.02-1.03-.06-1.51-.25-.55-.21-.92-.94-.8-1.59.14-.81.75-1.29,1.62-1.31.1,0,.21,0,.31,0,2.88,0,5.78.61,8.64,1.8,8.2,3.43,13.78,11.4,14.22,20.32,0,.15,0,.29,0,.44,0,.29.01.57,0,.82-.08.87-.6,1.4-1.41,1.44-.04,0-.09,0-.13,0Z" class="cls-1"></path>
</svg>