<svg viewBox="0 0 130 130" version="1.1" xmlns="http://www.w3.org/2000/svg" data-name="Layer 1" id="Layer_1">
  <defs>
    <style>
      .cls-1 {
        fill: #a8915f;
        stroke-width: 0px;
      }
    </style>
  </defs>
  <path d="M4.99,126.5c-.38,0-.76-.15-1.06-.44-.58-.58-.58-1.53,0-2.11L123.95,3.94c.58-.58,1.53-.58,2.11,0,.58.58.58,1.53,0,2.11L6.05,126.06c-.29.29-.67.44-1.06.44Z" class="cls-1"></path>
  <g>
    <path d="M52.19,42.89c-.82,0-1.49-.67-1.49-1.49v-12.14c0-.82.67-1.49,1.49-1.49h25.62c.82,0,1.49.67,1.49,1.49v11.48c0,.82-.67,1.49-1.49,1.49s-1.49-.67-1.49-1.49v-9.99h-22.64v10.65c0,.82-.67,1.49-1.49,1.49Z" class="cls-1"></path>
    <path d="M73.09,30.75h-16.18c-.82,0-1.49-.67-1.49-1.49V7.68c0-.82.67-1.49,1.49-1.49h16.18c.82,0,1.49.67,1.49,1.49v21.58c0,.82-.67,1.49-1.49,1.49ZM58.4,27.77h13.2V9.18h-13.2v18.59Z" class="cls-1"></path>
    <path d="M63.65,19.96h-6.74c-.82,0-1.49-.67-1.49-1.49s.67-1.49,1.49-1.49h6.74c.82,0,1.49.67,1.49,1.49s-.67,1.49-1.49,1.49Z" class="cls-1"></path>
    <path d="M40.22,19.96h-10.96c-.82,0-1.49-.67-1.49-1.49s.67-1.49,1.49-1.49h10.96c.82,0,1.49.67,1.49,1.49s-.67,1.49-1.49,1.49Z" class="cls-1"></path>
    <path d="M44.26,12.88c-.27,0-.54-.07-.78-.22l-9.34-5.73c-.7-.43-.92-1.35-.49-2.05s1.35-.92,2.05-.49l9.34,5.73c.7.43.92,1.35.49,2.05-.28.46-.77.71-1.27.71Z" class="cls-1"></path>
    <path d="M34.93,32.78c-.5,0-.99-.25-1.27-.71-.43-.7-.21-1.62.49-2.05l9.34-5.73c.7-.43,1.62-.21,2.05.49.43.7.21,1.62-.49,2.05l-9.34,5.73c-.24.15-.51.22-.78.22Z" class="cls-1"></path>
    <path d="M28.04,92c-.76,0-1.41-.58-1.48-1.35-.17-1.79-.26-3.63-.26-5.44,0-25.72,17.36-46.65,38.7-46.65h.34c4.13,0,9.27,0,13.01,1.45.77.3,1.15,1.16.85,1.93-.3.77-1.16,1.15-1.93.85-3.22-1.25-8.25-1.24-11.93-1.25h-.35c-19.69,0-35.72,19.59-35.72,43.66,0,1.72.08,3.46.25,5.16.08.82-.52,1.55-1.34,1.63-.05,0-.1,0-.14,0Z" class="cls-1"></path>
    <path d="M76.47,125.83h-22.95c-5.9,0-11.49-2.54-15.32-6.97-2.52-2.91-4.7-6.22-6.48-9.82-.37-.74-.06-1.63.68-2,.74-.36,1.63-.06,2,.68,1.67,3.38,3.71,6.47,6.06,9.19,3.27,3.78,8.03,5.94,13.06,5.94h22.95c5.04,0,9.8-2.17,13.06-5.94,7.21-8.34,11.18-19.59,11.18-31.7s-4.36-24.32-11.97-32.6c-.56-.61-.52-1.55.09-2.11.61-.56,1.55-.52,2.11.09,8.1,8.83,12.75,21.45,12.75,34.62s-4.23,24.78-11.9,33.65c-3.83,4.43-9.42,6.97-15.32,6.97Z" class="cls-1"></path>
    <path d="M76.47,116.39h-22.95c-.82,0-1.49-.67-1.49-1.49s.67-1.49,1.49-1.49h22.95c2.29,0,4.45-.98,5.92-2.68,5.64-6.52,8.88-15.83,8.88-25.53,0-.82.67-1.49,1.49-1.49s1.49.67,1.49,1.49c0,10.4-3.5,20.42-9.61,27.48-2.04,2.36-5.02,3.71-8.18,3.71Z" class="cls-1"></path>
  </g>
</svg>