<svg viewBox="0 0 130 130" version="1.1" xmlns="http://www.w3.org/2000/svg" data-name="Layer 1" id="Layer_1">
  <defs>
    <style>
      .cls-1 {
        fill: #a8915f;
        stroke: #a8915f;
        stroke-miterlimit: 10;
        stroke-width: .5px;
      }
    </style>
  </defs>
  <path d="M64.95,127.5c-.55,0-1.28-.17-1.41-1.47-.04-.39-.03-.81-.02-1.24,0-.19,0-.38,0-.57,0-2.29,0-4.58.01-6.87.02-5.14.04-10.46-.07-15.7-.14-6.7-2.95-12.64-8.35-17.66l-.79-.73-.73.79c-3.09,3.36-6.46,5.37-10.27,6.15-1.55.32-3.07.48-4.53.48-5.24,0-9.94-2.05-13.95-6.08-6.33-6.36-9.81-14.74-10.65-25.62-.19-2.43-.11-4.84-.02-6.88.14-2.85,2.17-5.07,4.83-5.27,1.45-.11,2.9-.17,4.29-.17,9.38,0,17.47,2.4,24.75,7.34,10.13,6.88,11.84,18.36,8.3,25.68-.38.78-.25,1.98.28,2.62,1.14,1.38,2.33,2.7,3.58,4.11.43.48.88.98,1.33,1.49l1.88,2.12v-35.11l-.69-.26c-.08-.03-.16-.07-.25-.1-.26-.11-.58-.25-.94-.33-9.94-2.31-16.7-11.63-15.72-21.68,1.05-10.84,6.16-20.2,15.62-28.61,1.04-.93,2.28-1.41,3.57-1.41s2.64.53,3.75,1.52c9.12,8.2,14.15,17.24,15.38,27.64.65,5.5-.5,10.52-3.3,14.53-2.81,4-7.14,6.79-12.54,8.04-.26.06-.49.15-.7.24-.09.04-.18.07-.29.11l-.7.26v35.2l1.88-2.11c.46-.52.91-1.02,1.36-1.51,1.25-1.38,2.43-2.69,3.55-4.07.59-.72.61-2.02.26-2.78-1.76-3.84-2.09-8.38-.93-12.79,1.2-4.56,3.95-8.68,7.75-11.6,7.43-5.72,16.02-8.51,26.25-8.51,1.45,0,2.94.06,4.46.17,2.41.18,4.5,2.32,4.65,4.77.79,12.51-2.08,22.65-8.76,31-4.11,5.14-9.99,8.09-16.14,8.09h0c-5.37,0-10.49-2.26-14.04-6.21-.2-.22-.42-.32-.59-.41-.06-.03-.13-.06-.21-.11l-.68-.37-.57.52c-5.37,4.94-8.16,10.88-8.28,17.68-.09,5.24-.08,10.55-.06,15.7,0,2.29.02,4.58.01,6.87,0,.17,0,.33,0,.5,0,.39.01.76-.02,1.11-.12,1.35-.85,1.52-1.47,1.52h-.05ZM93.4,67.14c.24,0,.62.07,1.01.64.29.41.4.79.34,1.12-.09.5-.59.92-.98,1.19-.28.19-.56.37-.84.56-.37.24-.75.49-1.11.74-3.14,2.14-6.29,4.28-9.69,6.6l-5.06,3.45,1.27.89c.36.25.67.46.94.65.48.32.83.56,1.13.82,3.01,2.6,6.65,3.97,10.51,3.97h0c4.96,0,9.82-2.36,13.34-6.47,6.34-7.39,9.17-16.79,8.67-28.74-.04-1.03-.51-2.77-3.13-2.89-.88-.04-1.76-.06-2.61-.06-8.76,0-16.21,2.07-22.78,6.33-4.13,2.68-6.82,5.89-8.23,9.81-1.58,4.42-1.58,8.23,0,11.98l.55,1.3,1.11-.88c.21-.17.4-.32.57-.46.32-.26.6-.49.87-.69l2.78-2.03c3.31-2.41,6.73-4.91,10.11-7.33.44-.32.87-.48,1.23-.48ZM22.82,49.61c-.84,0-1.71.02-2.58.06-2.51.11-3.1,1.74-3.16,3.09-.43,10.01,1.61,18.31,6.25,25.38,2.49,3.8,5.15,6.3,8.35,7.89,2.19,1.09,4.71,1.66,7.29,1.66,5.16,0,9.87-2.26,12.28-5.89l.53-.8-.73-.62c-.09-.08-.19-.16-.28-.24-.23-.2-.48-.43-.77-.63-3.99-2.75-7.99-5.49-11.98-8.23l-1.5-1.03c-.75-.52-1.23-1.11-1.3-1.61-.04-.3.06-.59.3-.88.47-.56.84-.63,1.08-.63.4,0,.88.2,1.43.59,3.43,2.43,6.78,4.82,10.33,7.35l5.11,3.64.5-1.29c2.81-7.24-.04-15.52-7.08-20.6-6.72-4.85-14.59-7.21-24.06-7.21ZM65.06,30.21c.69.01,1.34.21,1.42,1.6.02.41.02.83.01,1.28,0,.19,0,.38,0,.57v17.96s1.33-.33,1.33-.33c.28-.07.54-.13.78-.18.51-.12.99-.23,1.47-.39,7.58-2.53,12.06-9.93,11.14-18.4-1.02-9.46-5.57-17.85-13.92-25.65-.75-.71-1.5-1.05-2.29-1.05s-1.54.34-2.3,1.05c-6.74,6.2-11.01,12.97-13.07,20.69-2,7.51-.84,13.65,3.55,18.77,2.47,2.88,5.44,4.56,9.1,5.15l1.25.2v-3.73c0-1.48,0-2.96,0-4.44,0-3.77,0-7.67.02-11.5,0-1.43.74-1.62,1.46-1.62h.05Z" class="cls-1"></path>
</svg>